<svg xmlns="http://www.w3.org/2000/svg" viewBox="0 0 169.97 139.85"><defs><style>.cls-1{fill:#ddebff;}.cls-1,.cls-4{opacity:0.5;}.cls-2{opacity:0.1;}.cls-3{fill:#463e3b;}.cls-4{fill:#8bd2ff;}.cls-14,.cls-5{fill:#fff;}.cls-6{fill:#e6f4ff;}.cls-7{fill:none;stroke:#fff;stroke-miterlimit:10;stroke-width:3px;}.cls-8{fill:#ceeaff;}.cls-9{fill:#ffb82a;}.cls-10{fill:#6262a0;}.cls-10,.cls-14{opacity:0.15;}.cls-11{fill:#60609a;}.cls-12{fill:#25c83a;}.cls-13{fill:#ff5750;}.cls-15{fill:#e6e9ee;}</style></defs><title>Asset 270</title><g id="Layer_2" data-name="Layer 2"><g id="Layer_1-2" data-name="Layer 1"><path class="cls-1" d="M163.59,60.65a40.4,40.4,0,0,0-30.75-39.43,57.73,57.73,0,0,0-92.31,6.9,43.39,43.39,0,0,0-.08,82.06,34,34,0,0,0,63.39,12.37,33.85,33.85,0,0,0,17.2,4.68c19,0,34.39-15.62,34.39-34.89a35.55,35.55,0,0,0-.58-6.38A40.7,40.7,0,0,0,163.59,60.65Z"/><g class="cls-2"><path class="cls-3" d="M48.91,11.65H30.43V2.15H48.91ZM31.18,10.9h17v-8h-17Z"/><path class="cls-3" d="M62.2,20.9H43.73V11.41H62.2Zm-17.73-.75h17v-8h-17Z"/></g><g class="cls-2"><path class="cls-3" d="M66.6,129.16H48.12v-8.23H66.6Zm-17.73-.75h17v-6.73h-17Z"/><path class="cls-3" d="M79.89,137.08H61.42v-8.23H79.89Zm-17.73-.75h17V129.6h-17Z"/></g><g class="cls-2"><path class="cls-3" d="M163.5,61.44H145V52.73H163.5Zm-17.73-.75h17V53.48h-17Z"/><path class="cls-3" d="M150.21,69.86H131.73V61.15h18.48Zm-17.73-.75h17V61.9h-17Z"/></g><polygon class="cls-4" points="137.04 8.91 134.45 7.7 131.6 7.85 131.95 5.01 130.92 2.35 133.73 1.8 135.95 0 137.33 2.5 139.73 4.05 137.78 6.14 137.04 8.91"/><polygon class="cls-4" points="167.28 91.52 164.69 90.31 161.84 90.46 162.19 87.63 161.16 84.96 163.97 84.42 166.19 82.61 167.57 85.11 169.97 86.67 168.02 88.76 167.28 91.52"/><polygon class="cls-4" points="13.5 16.2 10.91 14.99 8.05 15.15 8.4 12.31 7.38 9.64 10.18 9.1 12.4 7.3 13.79 9.8 16.18 11.35 14.23 13.44 13.5 16.2"/><polygon class="cls-4" points="104.96 138.65 102.37 137.44 99.52 137.59 99.87 134.76 98.84 132.09 101.65 131.55 103.86 129.74 105.25 132.24 107.65 133.8 105.7 135.89 104.96 138.65"/><polygon class="cls-4" points="6.12 109.14 3.53 107.93 0.68 108.09 1.03 105.25 0 102.58 2.81 102.04 5.03 100.24 6.41 102.74 8.81 104.29 6.86 106.38 6.12 109.14"/><path class="cls-5" d="M137.55,38.54l.06,4.12a.63.63,0,0,0,1.25,0l-.06-4.12a.63.63,0,0,0-1.25,0Z"/><path class="cls-5" d="M134.85,31.49h3.38l-.62-.62v3.07a.63.63,0,0,0,1.25,0V30.86a.63.63,0,0,0-.62-.62h-3.38a.63.63,0,0,0,0,1.25Z"/><rect class="cls-6" x="23.41" y="19.87" width="120.58" height="98.45"/><rect class="cls-5" x="23.78" y="19.71" width="120.21" height="3.34"/><path class="cls-7" d="M83.77,84.16"/><rect class="cls-8" x="23.4" y="101.66" width="120.36" height="17.33"/><rect class="cls-5" x="28.95" y="45.67" width="106.95" height="65.05"/><polygon class="cls-9" points="28.95 45.58 59.87 45.58 55.77 39.43 33.04 39.43 28.95 45.58"/><polygon class="cls-10" points="59.86 45.59 90.79 45.59 86.69 39.44 63.96 39.44 59.86 45.59"/><path class="cls-11" d="M141.29,120.69H26.21a4,4,0,0,1-3.95-3.95V22.43a4,4,0,0,1,3.95-3.95H141.29a4,4,0,0,1,3.95,3.95v94.31A4,4,0,0,1,141.29,120.69ZM26.21,20.48a2,2,0,0,0-1.95,1.95v94.31a2,2,0,0,0,1.95,1.95H141.29a2,2,0,0,0,1.95-2V22.43a2,2,0,0,0-1.95-1.95Z"/><circle class="cls-5" cx="130.24" cy="33.44" r="4.72"/><circle class="cls-5" cx="114.91" cy="33.44" r="4.72"/><circle class="cls-5" cx="99.59" cy="33.44" r="4.72"/><circle class="cls-12" cx="50.66" cy="32.11" r="2.81"/><circle class="cls-9" cx="41.53" cy="32.11" r="2.81"/><circle class="cls-13" cx="32.41" cy="32.11" r="2.81"/><path class="cls-14" d="M51,31.78a2.8,2.8,0,0,1,2.36,1.3,2.78,2.78,0,0,0,.12-.77,2.81,2.81,0,1,0-5.17,1.51A2.8,2.8,0,0,1,51,31.78Z"/><path class="cls-14" d="M41.95,31.78a2.8,2.8,0,0,1,2.36,1.3,2.78,2.78,0,0,0,.12-.77,2.81,2.81,0,1,0-5.17,1.51A2.8,2.8,0,0,1,41.95,31.78Z"/><path class="cls-14" d="M32.8,31.78a2.8,2.8,0,0,1,2.36,1.3,2.78,2.78,0,0,0,.12-.77,2.81,2.81,0,1,0-5.17,1.51A2.8,2.8,0,0,1,32.8,31.78Z"/><rect class="cls-15" x="49.77" y="59.23" width="63.16" height="4.17"/><rect class="cls-15" x="49.77" y="69.13" width="63.16" height="4.17"/><rect class="cls-15" x="49.77" y="79.03" width="63.16" height="4.17"/><rect class="cls-15" x="49.77" y="88.92" width="36.22" height="4.17"/></g></g></svg>