<svg xmlns="http://www.w3.org/2000/svg" viewBox="0 0 168.51 142.66"><defs><style>.cls-1{opacity:0.1;}.cls-2{fill:#463e3b;}.cls-3{fill:#8bd2ff;}.cls-3,.cls-4{opacity:0.5;}.cls-4{fill:#ddebff;}.cls-5{fill:#e6f4ff;}.cls-15,.cls-6{fill:#fff;}.cls-7{fill:none;stroke:#fff;stroke-miterlimit:10;stroke-width:3px;}.cls-8{fill:#ceeaff;}.cls-9{fill:#ffb82a;}.cls-10{fill:#6262a0;}.cls-10,.cls-15{opacity:0.15;}.cls-11{font-size:45.77px;fill:#8686ba;font-family:FiraSans-Bold, Fira Sans;font-weight:700;}.cls-12{fill:#60609a;}.cls-13{fill:#25c83a;}.cls-14{fill:#ff5750;}</style></defs><title>Asset 330</title><g id="Layer_2" data-name="Layer 2"><g id="Layer_1-2" data-name="Layer 1"><g class="cls-1"><path class="cls-2" d="M151.17,54.75h-19v-10h19ZM132.91,54h17.51V45.5H132.91Z"/><path class="cls-2" d="M164.87,64.55h-19v-10h19Zm-18.26-.75h17.51V55.3H146.61Z"/></g><polygon class="cls-3" points="155.22 34.76 152.55 33.51 149.61 33.67 149.97 30.75 148.91 28 151.8 27.44 154.09 25.59 155.51 28.16 157.99 29.76 155.97 31.91 155.22 34.76"/><polygon class="cls-3" points="160.92 84.13 158.25 82.88 155.31 83.04 155.67 80.12 154.61 77.37 157.5 76.81 159.79 74.95 161.21 77.53 163.69 79.13 161.68 81.28 160.92 84.13"/><path class="cls-4" d="M168.51,61.08a41.62,41.62,0,0,0-31.68-40.61,59.47,59.47,0,0,0-95.09,7.1,44.69,44.69,0,0,0-.08,84.52A35.05,35.05,0,0,0,107,124.84a34.87,34.87,0,0,0,17.71,4.82c19.57,0,35.43-16.09,35.43-35.94a36.62,36.62,0,0,0-.6-6.58A41.92,41.92,0,0,0,168.51,61.08Z"/><g class="cls-1"><path class="cls-2" d="M50.37,10.59h-19V.84h19ZM32.11,9.84H49.62V1.59H32.11Z"/><path class="cls-2" d="M64.06,20.13h-19V10.37h19ZM45.8,19.38H63.31V11.12H45.8Z"/></g><polygon class="cls-3" points="13.9 15.3 11.24 14.05 8.3 14.21 8.66 11.29 7.6 8.54 10.49 7.98 12.77 6.13 14.2 8.7 16.67 10.3 14.66 12.45 13.9 15.3"/><polygon class="cls-3" points="6.31 111.03 3.64 109.78 0.7 109.94 1.06 107.02 0 104.27 2.89 103.72 5.18 101.86 6.6 104.44 9.07 106.03 7.06 108.19 6.31 111.03"/><rect class="cls-5" x="23.94" y="19.76" width="123.92" height="101.4"/><rect class="cls-6" x="23.94" y="19.6" width="123.76" height="3.44"/><path class="cls-7" d="M86.29,85.3"/><rect class="cls-8" x="23.94" y="103.33" width="124.14" height="17.85"/><rect class="cls-6" x="29.82" y="45.65" width="110.17" height="67"/><polygon class="cls-9" points="29.82 45.56 61.67 45.56 57.45 39.22 34.04 39.22 29.82 45.56"/><polygon class="cls-10" points="61.66 45.56 93.52 45.56 89.29 39.23 65.88 39.23 61.66 45.56"/><text class="cls-11" transform="translate(48.5 94.22)">&lt;/&gt;</text><path class="cls-12" d="M145.62,122.89H26.91A4,4,0,0,1,23,118.94V21.62a4,4,0,0,1,3.95-3.95H145.62a4,4,0,0,1,3.95,3.95v97.32A4,4,0,0,1,145.62,122.89ZM26.91,19.67A2,2,0,0,0,25,21.62v97.32a2,2,0,0,0,1.95,1.95H145.62a2,2,0,0,0,1.95-1.95V21.62a2,2,0,0,0-1.95-1.95Z"/><circle class="cls-6" cx="134.15" cy="33.05" r="4.86"/><circle class="cls-6" cx="118.37" cy="33.05" r="4.86"/><circle class="cls-6" cx="102.58" cy="33.05" r="4.86"/><circle class="cls-13" cx="52.18" cy="31.69" r="2.89"/><circle class="cls-9" cx="42.78" cy="31.69" r="2.89"/><circle class="cls-14" cx="33.38" cy="31.69" r="2.89"/><path class="cls-15" d="M52.52,31.34a2.89,2.89,0,0,1,2.43,1.34,2.86,2.86,0,0,0,.13-.8,2.89,2.89,0,1,0-5.33,1.56A2.88,2.88,0,0,1,52.52,31.34Z"/><path class="cls-15" d="M43.21,31.34a2.89,2.89,0,0,1,2.43,1.34,2.86,2.86,0,0,0,.13-.8,2.89,2.89,0,1,0-5.33,1.56A2.88,2.88,0,0,1,43.21,31.34Z"/><path class="cls-15" d="M33.78,31.34a2.89,2.89,0,0,1,2.43,1.34,2.86,2.86,0,0,0,.13-.8A2.89,2.89,0,1,0,31,33.43,2.88,2.88,0,0,1,33.78,31.34Z"/></g></g></svg>